<mxfile host="app.diagrams.net" modified="2022-11-18T07:25:49.797Z" agent="5.0 (Windows NT 10.0; Win64; x64) AppleWebKit/537.36 (KHTML, like Gecko) Chrome/107.0.0.0 Safari/537.36" etag="WcTqi3Rrook8i9Aa_L2C" version="20.5.3" type="github">
  <diagram id="lhAyzASIqc6zSMWJkSXD" name="Page-1">
    <mxGraphModel dx="852" dy="469" grid="1" gridSize="10" guides="1" tooltips="1" connect="1" arrows="1" fold="1" page="1" pageScale="1" pageWidth="850" pageHeight="1100" math="0" shadow="0">
      <root>
        <mxCell id="0" />
        <mxCell id="1" parent="0" />
        <mxCell id="-YFmkDaYG4K8AXplIaBK-3" style="edgeStyle=orthogonalEdgeStyle;rounded=0;orthogonalLoop=1;jettySize=auto;html=1;entryX=0.5;entryY=0;entryDx=0;entryDy=0;" edge="1" parent="1" source="-YFmkDaYG4K8AXplIaBK-1" target="-YFmkDaYG4K8AXplIaBK-2">
          <mxGeometry relative="1" as="geometry" />
        </mxCell>
        <mxCell id="-YFmkDaYG4K8AXplIaBK-1" value="Input data from file" style="rounded=1;whiteSpace=wrap;html=1;" vertex="1" parent="1">
          <mxGeometry x="365" y="40" width="120" height="60" as="geometry" />
        </mxCell>
        <mxCell id="-YFmkDaYG4K8AXplIaBK-5" style="edgeStyle=orthogonalEdgeStyle;rounded=0;orthogonalLoop=1;jettySize=auto;html=1;entryX=0.5;entryY=0;entryDx=0;entryDy=0;" edge="1" parent="1" source="-YFmkDaYG4K8AXplIaBK-2" target="-YFmkDaYG4K8AXplIaBK-4">
          <mxGeometry relative="1" as="geometry" />
        </mxCell>
        <mxCell id="-YFmkDaYG4K8AXplIaBK-2" value="Read each line from the input and split it into words using regex&lt;br&gt;Splitter() : returns Iterable" style="rounded=1;whiteSpace=wrap;html=1;" vertex="1" parent="1">
          <mxGeometry x="335" y="150" width="180" height="90" as="geometry" />
        </mxCell>
        <mxCell id="-YFmkDaYG4K8AXplIaBK-7" style="edgeStyle=orthogonalEdgeStyle;rounded=0;orthogonalLoop=1;jettySize=auto;html=1;" edge="1" parent="1" source="-YFmkDaYG4K8AXplIaBK-4" target="-YFmkDaYG4K8AXplIaBK-6">
          <mxGeometry relative="1" as="geometry" />
        </mxCell>
        <mxCell id="-YFmkDaYG4K8AXplIaBK-4" value="Feed the iterable into the Mapper function" style="rounded=1;whiteSpace=wrap;html=1;" vertex="1" parent="1">
          <mxGeometry x="365" y="300" width="120" height="60" as="geometry" />
        </mxCell>
        <mxCell id="-YFmkDaYG4K8AXplIaBK-9" style="edgeStyle=orthogonalEdgeStyle;rounded=0;orthogonalLoop=1;jettySize=auto;html=1;entryX=0.5;entryY=0;entryDx=0;entryDy=0;" edge="1" parent="1" source="-YFmkDaYG4K8AXplIaBK-6" target="-YFmkDaYG4K8AXplIaBK-8">
          <mxGeometry relative="1" as="geometry" />
        </mxCell>
        <mxCell id="-YFmkDaYG4K8AXplIaBK-6" value="Feed the RDD pairs to the pairing function" style="rounded=1;whiteSpace=wrap;html=1;" vertex="1" parent="1">
          <mxGeometry x="365" y="420" width="120" height="60" as="geometry" />
        </mxCell>
        <mxCell id="-YFmkDaYG4K8AXplIaBK-11" style="edgeStyle=orthogonalEdgeStyle;rounded=0;orthogonalLoop=1;jettySize=auto;html=1;exitX=0.5;exitY=1;exitDx=0;exitDy=0;" edge="1" parent="1" source="-YFmkDaYG4K8AXplIaBK-8" target="-YFmkDaYG4K8AXplIaBK-10">
          <mxGeometry relative="1" as="geometry" />
        </mxCell>
        <mxCell id="-YFmkDaYG4K8AXplIaBK-8" value="Feed the pairs to a reducer()&lt;br&gt;reduceByKey() is used in this assignment" style="rounded=1;whiteSpace=wrap;html=1;" vertex="1" parent="1">
          <mxGeometry x="333" y="530" width="185" height="90" as="geometry" />
        </mxCell>
        <mxCell id="-YFmkDaYG4K8AXplIaBK-10" value="Collect/combine the results of the reducer and send it to an outputstream" style="rounded=1;whiteSpace=wrap;html=1;" vertex="1" parent="1">
          <mxGeometry x="366" y="670" width="120" height="60" as="geometry" />
        </mxCell>
      </root>
    </mxGraphModel>
  </diagram>
</mxfile>
